<svg width="891" height="144" viewBox="0 0 891 144" fill="none" xmlns="http://www.w3.org/2000/svg">
<path d="M26.8112 94.1907V142.119C26.8112 142.992 26.0972 143.627 25.304 143.627H1.50713C0.634578 143.627 0 142.913 0 142.119V1.66637C0 0.793499 0.713901 0.158689 1.50713 0.158689H25.304C26.1766 0.158689 26.8112 0.872851 26.8112 1.66637V56.8953C26.8112 57.7682 27.5251 58.4029 28.3183 58.4029C28.3183 58.4029 40.4547 60.1487 49.1802 54.9115C56.7952 50.3884 68.0591 38.803 73.7703 26.6622C80.3541 12.6169 81.3853 1.19028 81.3853 1.19028C81.544 0.476111 82.1785 0 82.8924 0H111.131C112.163 0 112.877 1.03155 112.639 2.06313L110.893 10.8712C103.754 41.1836 89.7935 54.0386 89.7935 54.0386C87.8105 56.4191 79.085 64.8305 69.9628 69.6709C69.0109 70.147 68.3764 71.0992 68.3764 72.1308C68.3764 73.3211 69.1696 74.3527 70.2801 74.7495C70.2801 74.7495 90.6661 79.6692 101.057 100.697C107.562 111.965 115.256 141.881 115.256 141.881C115.494 142.833 114.78 143.786 113.749 143.786H86.1447C85.4308 143.786 84.8755 143.309 84.6376 142.675L78.7677 121.567C78.7677 121.567 75.5947 109.506 69.1696 100.618C62.6651 91.7307 54.1776 92.2862 50.608 92.2862L28.4769 92.4449C27.525 92.6036 26.8112 93.3178 26.8112 94.1907Z" fill="#D43503"/>
<path d="M166.737 143.547C150.317 142.357 139.132 129.423 138.736 114.267C138.418 102.919 141.909 93.6352 150.872 86.7316C156.98 82.0498 164.198 79.828 171.655 78.2409C182.601 75.8604 187.678 74.5114 198.704 72.607C206.319 71.1786 210.523 70.2264 211.158 67.6078C211.951 64.6718 211.634 61.1803 210.761 58.2443C209.412 53.8005 203.939 47.7698 189.185 47.9285C172.527 48.0872 169.83 62.926 168.165 65.9414C167.927 66.4175 167.371 66.7349 166.816 66.7349H144.764C143.892 66.7349 143.178 66.0207 143.257 65.1479C143.892 50.3091 150.238 38.4063 163.405 31.0266C170.703 26.9796 179.111 23.9643 192.834 23.9643C206.557 23.9643 221.549 29.6776 229.323 38.9618C234.399 44.9925 236.938 52.1342 238.445 59.9107C240.586 70.9406 238.127 84.0336 241.697 112.759C242.966 121.091 246.298 133.549 247.646 141.96C247.805 142.913 247.091 143.706 246.139 143.706C237.493 143.706 228.847 143.706 220.28 143.706C219.486 143.706 218.852 143.151 218.773 142.437C218.535 140.85 217.265 129.264 216.552 125.217C216.393 124.027 214.886 123.472 214.013 124.344C207.826 130.772 191.01 146.484 166.737 143.547ZM212.268 95.1429C214.568 89.3502 210.444 87.8425 206.636 88.2393C198.783 88.9535 185.219 92.0481 179.587 93.5558C169.434 96.2538 164.198 105.141 168.244 113.711C171.496 120.615 176.573 123.075 186.647 120.615C204.415 114.663 209.888 101.015 212.268 95.1429Z" fill="#D43503"/>
<path d="M373.135 143.468C365.361 143.468 357.588 143.468 349.814 143.468C349.021 143.468 348.307 142.833 348.307 141.96C348.228 126.407 348.069 106.49 347.99 90.8579C347.99 82.4466 348.228 65.2272 338.868 56.8159C333.394 52.0548 320.703 51.5787 314.119 56.9746C307.535 62.4499 302.538 71.7341 302.538 81.7324C302.538 90.3818 302.141 134.263 301.982 141.881C301.982 142.675 301.268 143.309 300.475 143.309C292.94 143.309 280.327 143.309 276.044 143.309C275.171 143.309 274.537 142.675 274.537 141.802C274.537 106.014 274.537 61.4977 274.537 25.6306C274.537 24.7578 275.251 24.123 276.044 24.123H297.382C298.175 24.123 298.889 24.7578 298.889 25.6306C298.968 29.7569 299.047 38.7237 299.127 43.3261C299.127 44.8338 301.031 45.3892 301.903 44.199C306.345 38.0889 313.643 26.4242 332.68 24.0436C355.446 22.3772 373.611 36.1051 373.611 63.4021C373.532 63.7989 374.642 131.01 374.721 141.802C374.642 142.833 373.928 143.468 373.135 143.468Z" fill="#D43503"/>
<path d="M476.572 29.8363C457.376 27.4557 446.429 31.1059 436.197 41.0249C435.007 42.1358 433.183 41.7391 433.103 40.0727C433.024 34.9148 432.945 6.34815 432.865 1.74574C432.865 0.793517 432.072 0.0793457 431.199 0.0793457H407.561C406.609 0.0793457 405.895 0.793517 405.895 1.74574C405.895 41.501 405.816 74.8288 405.816 101.808C405.816 122.361 401.295 132.676 399.946 141.088C399.788 142.04 400.501 142.833 401.453 142.833C410.1 142.833 418.746 142.833 427.313 142.833C428.106 142.833 428.74 142.278 428.82 141.564C429.058 139.977 430.248 129.105 430.961 125.059C431.12 123.868 432.627 123.313 433.5 124.186C439.687 130.613 446.509 143.309 468.481 143.309C490.454 143.309 501.321 130.137 507.27 111.965C507.111 111.886 524.8 35.7877 476.572 29.8363ZM460.946 119.345C450.951 119.345 438.497 111.648 438.418 81.7324C438.418 69.3535 445.16 50.7058 460.946 50.9439C474.43 51.1026 482.759 64.5924 482.759 81.7324C482.839 108.791 475.938 119.345 460.946 119.345Z" fill="#D43503"/>
<path d="M686.064 143.389C669.644 142.199 658.46 129.264 658.063 114.108C657.746 102.761 661.236 93.4765 670.199 86.5729C676.307 81.8911 683.526 79.6693 690.982 78.0822C701.928 75.7017 707.005 74.3527 718.031 72.4482C725.646 71.0199 729.85 70.0677 730.485 67.4491C731.278 64.5131 730.961 61.0216 730.088 58.0856C728.74 53.6419 723.266 47.6111 708.512 47.7698C691.854 47.9285 689.157 62.7673 687.492 65.7827C687.254 66.2588 686.699 66.5762 686.143 66.5762H664.091C663.219 66.5762 662.505 65.862 662.584 64.9892C663.219 50.1504 669.565 38.2476 682.732 30.8679C690.03 26.8209 698.438 23.8056 712.161 23.8056C725.884 23.8056 740.876 29.5189 748.65 38.8031C753.726 44.8338 756.265 51.9755 757.772 59.752C759.914 70.7819 757.455 83.8749 761.024 112.6C762.293 120.932 765.625 133.39 766.973 141.802C767.132 142.754 766.418 143.547 765.466 143.547C756.82 143.547 748.174 143.547 739.607 143.547C738.814 143.547 738.179 142.992 738.1 142.278C737.862 140.691 736.593 129.105 735.879 125.059C735.72 123.868 734.213 123.313 733.34 124.186C727.233 130.693 710.337 146.404 686.064 143.389ZM731.595 94.9842C733.896 89.1915 729.771 87.6838 725.963 88.0806C718.11 88.7947 704.546 91.8895 698.914 93.3972C688.761 96.0951 683.526 104.982 687.571 113.552C690.823 120.456 695.9 122.916 705.974 120.456C723.742 114.505 729.295 100.936 731.595 94.9842Z" fill="#D43503"/>
<path d="M888.893 143.389C881.119 143.389 873.345 143.389 865.572 143.389C864.778 143.389 864.064 142.754 864.064 141.881C863.985 126.328 863.827 106.411 863.747 90.7785C863.747 82.3672 864.778 61.0216 855.418 52.6103C849.945 47.8492 842.33 47.8491 835.746 53.3244C829.162 58.7997 818.295 71.8134 818.295 81.7324C818.295 90.3818 817.899 134.263 817.74 141.881C817.74 142.675 817.026 143.309 816.233 143.309C808.697 143.309 796.085 143.309 791.801 143.309C790.929 143.309 790.294 142.675 790.294 141.802C790.294 106.014 790.294 61.4977 790.294 25.6306C790.294 24.7578 791.008 24.123 791.801 24.123H813.139C813.932 24.123 814.646 24.7578 814.646 25.6306C814.726 29.7569 814.805 38.7237 814.884 43.3261C814.884 44.8338 816.788 45.3892 817.661 44.199C822.103 38.0889 829.4 26.4242 848.438 24.0436C871.204 22.3772 889.369 36.1051 889.369 63.4021C889.289 63.7989 890.4 131.01 890.479 141.802C890.4 142.675 889.686 143.389 888.893 143.389Z" fill="#D43503"/>
<path d="M632.6 43.1674V142.595C632.6 142.992 632.283 143.23 631.966 143.23H620.067C619.671 143.23 619.433 142.913 619.433 142.595V43.1674C619.433 42.7706 619.75 42.4532 620.067 42.4532H631.966C632.362 42.4532 632.6 42.7706 632.6 43.1674Z" fill="#D43503"/>
<path d="M605.472 25.1545V142.516C605.472 142.913 605.155 143.151 604.837 143.151H592.939C592.542 143.151 592.225 142.833 592.225 142.516V25.1545C592.225 24.7578 592.542 24.4404 592.939 24.4404H604.837C605.155 24.5197 605.472 24.8371 605.472 25.1545Z" fill="#D43503"/>
<path d="M578.026 43.1674V142.595C578.026 142.992 577.709 143.23 577.392 143.23H565.493C565.097 143.23 564.779 142.913 564.779 142.595V43.1674C564.779 42.7706 565.097 42.4532 565.493 42.4532H577.392C577.709 42.4532 578.026 42.7706 578.026 43.1674Z" fill="#D43503"/>
<path d="M541.538 143.071C542.41 143.468 543.124 143.151 543.521 142.437L545.821 136.803C549.867 123.948 550.818 120.218 550.739 101.094V1.58705C550.739 0.71418 550.105 0.0793457 549.391 0.0793457H538.603C537.889 0.0793457 537.254 0.793532 537.254 1.58705V101.015C537.096 115.536 535.985 119.107 534.637 123.789C533.685 127.042 531.067 135.216 530.195 136.803C529.798 137.517 529.877 138.39 530.432 138.866L541.538 143.071Z" fill="#D43503"/>
</svg>
