<svg width="162" height="225" viewBox="0 0 162 225" fill="none" xmlns="http://www.w3.org/2000/svg">
<path d="M161.324 67.7143V223.968C161.324 224.592 160.825 224.966 160.327 224.966H141.628C141.004 224.966 140.631 224.467 140.631 223.968V67.7143C140.631 67.0908 141.129 66.592 141.628 66.592H160.327C160.95 66.592 161.324 67.0908 161.324 67.7143Z" fill="#D43503"/>
<path d="M118.69 39.4065V223.844C118.69 224.467 118.191 224.841 117.693 224.841H98.9941C98.3708 224.841 97.8721 224.342 97.8721 223.844V39.4065C97.8721 38.7829 98.3708 38.2841 98.9941 38.2841H117.693C118.191 38.4088 118.69 38.9076 118.69 39.4065Z" fill="#D43503"/>
<path d="M75.5587 67.7143V223.968C75.5587 224.592 75.0602 224.966 74.5615 224.966H55.8627C55.2394 224.966 54.7408 224.467 54.7408 223.968V67.7143C54.7408 67.0908 55.2394 66.592 55.8627 66.592H74.5615C75.0602 66.592 75.5587 67.0908 75.5587 67.7143Z" fill="#D43503"/>
<path d="M18.2157 224.717C19.5869 225.34 20.7088 224.841 21.3321 223.719L24.9473 214.865C31.3048 194.663 32.8007 188.802 32.676 158.748V2.36941C32.676 0.997662 31.6788 0 30.5569 0H13.6034C12.4814 0 11.4841 1.12237 11.4841 2.36941V158.624C11.2348 181.444 9.48964 187.056 7.37044 194.414C5.87454 199.526 1.76084 212.371 0.389592 214.865C-0.2337 215.987 -0.109133 217.359 0.763477 218.107L18.2157 224.717Z" fill="#D43503"/>
</svg>
